<?xml version="1.0" standalone="no"?>
<!DOCTYPE svg PUBLIC "-//W3C//DTD SVG 20010904//EN"
 "http://www.w3.org/TR/2001/REC-SVG-20010904/DTD/svg10.dtd">
<svg version="1.0" xmlns="http://www.w3.org/2000/svg"
 width="983.000000pt" height="983.000000pt" viewBox="0 0 983.000000 983.000000"
 preserveAspectRatio="xMidYMid meet">

<g transform="translate(0.000000,983.000000) scale(0.100000,-0.100000)"
fill="#000000" stroke="none">
<path d="M530 9798 c19 -17 131 -117 249 -222 264 -235 690 -617 871 -781 331
-300 497 -448 518 -462 22 -15 25 -14 69 28 46 45 103 116 103 129 0 4 -62 63
-137 131 -76 68 -156 140 -178 160 -53 48 -381 344 -431 389 -21 19 -127 113
-234 209 -107 96 -235 211 -285 256 -49 45 -119 108 -155 139 l-65 56 -180 0
-180 -1 35 -31z"/>
<path d="M4178 9548 c-2 -156 -2 -295 0 -309 4 -24 9 -27 56 -31 29 -2 69 -2
89 0 l37 4 0 309 0 309 -89 0 -89 0 -4 -282z"/>
<path d="M5235 9648 c-7 -195 -4 -422 6 -433 7 -7 167 -11 173 -4 2 2 6 142
10 312 l6 307 -94 0 -94 0 -7 -182z"/>
<path d="M8815 9752 c-44 -42 -174 -167 -290 -277 -193 -184 -293 -280 -540
-516 -49 -47 -183 -175 -297 -284 -115 -109 -208 -199 -208 -202 0 -2 18 -28
39 -57 42 -56 114 -120 130 -114 11 3 1601 1518 1601 1524 0 2 -80 4 -177 4
l-178 0 -80 -78z"/>
<path d="M4759 8969 c-30 -10 -62 -18 -71 -19 -28 0 -167 -49 -228 -80 -30
-15 -86 -40 -125 -55 -114 -45 -231 -102 -303 -149 -37 -23 -72 -45 -78 -47
-7 -2 -53 -42 -103 -88 -51 -46 -110 -96 -132 -110 -70 -45 -178 -211 -209
-321 -12 -45 -16 -63 -45 -240 -11 -68 -27 -119 -56 -180 -22 -46 -49 -124
-60 -172 -18 -84 -35 -136 -65 -205 -10 -22 -14 -71 -14 -165 1 -73 -4 -162
-11 -198 -6 -36 -12 -139 -13 -228 -1 -159 -2 -164 -25 -183 -13 -10 -31 -19
-42 -19 -32 0 -30 -18 6 -40 19 -12 35 -27 35 -35 0 -7 3 -27 6 -44 6 -27 4
-31 -15 -31 -20 0 -54 26 -62 47 -2 6 -14 13 -26 17 -18 6 -25 1 -38 -24 -22
-43 -19 -212 5 -243 21 -26 28 -48 34 -106 6 -54 26 -80 26 -34 0 18 5 35 10
38 6 3 10 14 10 25 0 24 25 33 41 14 9 -12 9 -20 -1 -39 -11 -21 -11 -27 2
-42 10 -11 19 -47 23 -88 4 -38 9 -79 12 -89 5 -18 6 -18 23 4 l18 24 7 -56
c8 -66 1 -94 -24 -101 -36 -9 -35 -58 3 -140 41 -86 42 -94 21 -124 -8 -12
-11 -23 -7 -25 4 -2 18 -20 30 -42 21 -36 22 -40 7 -56 -10 -11 -15 -31 -13
-52 3 -33 4 -33 57 -36 37 -2 57 1 62 10 12 17 11 78 0 78 -10 0 -21 55 -24
121 -2 26 -8 53 -14 60 -12 15 -23 259 -11 259 3 0 6 39 6 88 -1 175 1 199 17
212 20 16 19 44 -1 61 -12 10 -15 24 -10 56 3 24 9 64 13 91 3 26 13 57 21 70
12 18 12 27 2 52 -25 61 11 81 48 26 28 -42 27 -94 -3 -110 -11 -6 -22 -12
-24 -13 -2 -1 7 -11 20 -22 22 -18 24 -26 23 -110 0 -50 3 -91 8 -91 5 0 5
-12 2 -26 -4 -14 -3 -29 2 -33 21 -14 92 -108 98 -128 4 -13 15 -23 26 -23 10
0 29 -13 42 -30 15 -19 37 -32 63 -38 28 -5 41 -14 44 -27 10 -54 57 -83 178
-108 51 -11 68 -11 93 -1 17 8 44 11 61 7 18 -3 42 0 62 10 18 8 61 20 97 26
36 7 79 14 95 17 17 3 47 14 68 26 30 16 48 19 83 13 51 -7 74 -33 74 -82 0
-42 14 -49 37 -19 11 13 30 26 42 28 31 4 111 147 111 198 0 20 8 47 17 60 26
37 27 182 2 232 -11 21 -19 42 -19 47 0 17 -59 99 -87 121 -15 11 -45 29 -67
40 -23 11 -57 29 -76 41 -73 44 -420 149 -494 149 -20 0 -40 8 -51 20 -14 16
-26 19 -47 15 -22 -5 -33 -2 -46 15 -17 21 -21 22 -86 12 -44 -7 -77 -18 -91
-32 -22 -21 -55 -27 -55 -11 0 5 -10 11 -22 13 -25 3 -36 34 -19 51 8 8 14 8
23 -1 13 -13 29 -16 27 -4 -1 4 -1 9 0 12 1 3 4 23 6 46 4 49 35 110 71 139
21 16 24 26 19 48 -8 31 -25 31 -40 0 -11 -21 -11 -21 -22 5 -17 39 -19 74 -5
99 9 17 9 22 -3 27 -36 13 -9 46 38 46 19 0 18 3 -10 21 -32 20 -41 31 -25 27
12 -2 42 13 42 22 0 5 -17 10 -37 12 -31 2 -39 7 -41 26 -2 14 2 22 11 22 13
0 33 51 41 103 3 25 56 66 84 67 12 0 22 4 22 9 0 5 13 22 28 39 15 16 33 41
40 56 6 14 18 26 25 26 8 0 33 14 56 31 23 16 48 28 54 26 7 -2 27 2 45 10 20
8 47 11 67 7 28 -5 40 -1 66 20 37 31 63 33 86 6 23 -27 37 -25 111 10 35 17
71 30 81 30 19 0 81 -53 81 -69 0 -7 23 -11 55 -11 54 0 55 -1 71 -37 14 -35
17 -36 28 -20 17 23 24 22 28 -5 2 -16 11 -24 28 -26 14 -2 32 -13 41 -24 14
-17 19 -19 39 -8 18 10 29 9 59 -4 20 -9 65 -17 101 -19 52 -2 70 -7 88 -25
12 -12 34 -24 49 -28 16 -4 36 -13 45 -22 12 -10 29 -13 54 -9 33 6 37 4 47
-23 8 -22 18 -30 42 -32 20 -2 33 -11 40 -25 5 -12 28 -29 51 -38 41 -16 63
-33 88 -70 12 -16 16 -17 30 -6 16 13 17 13 20 -11 0 -7 17 -14 36 -16 l35 -3
-25 21 c-14 11 -33 22 -42 26 -50 16 13 42 65 27 30 -8 32 -12 32 -58 0 -45 3
-50 35 -69 22 -12 70 -24 130 -31 52 -7 144 -23 203 -35 98 -21 116 -23 178
-12 38 7 87 12 109 12 36 0 40 -3 48 -34 6 -19 19 -43 30 -54 16 -16 21 -39
26 -118 4 -65 14 -116 27 -149 35 -85 42 -134 42 -320 0 -161 -2 -184 -20
-220 -14 -27 -22 -70 -27 -130 -3 -49 -12 -155 -21 -235 -8 -80 -14 -161 -14
-180 l0 -35 25 50 c25 49 30 97 22 195 -2 25 1 35 13 38 12 2 18 -7 23 -35 10
-55 26 -93 41 -93 7 0 26 37 43 83 51 136 76 257 54 257 -11 0 -52 -44 -52
-56 -1 -5 -16 -27 -35 -49 -51 -60 -62 -40 -35 69 11 47 25 98 30 111 5 14 14
71 19 128 6 61 21 131 36 177 21 59 26 86 22 135 -24 290 -27 361 -16 388 9
21 9 41 0 80 -19 81 -16 145 9 222 24 69 25 88 18 253 -1 26 5 75 12 110 11
51 11 74 1 130 -14 74 -28 127 -41 157 -5 11 -21 48 -35 83 -34 84 -79 165
-121 220 -32 43 -39 57 -46 107 -2 11 -14 25 -28 32 -13 7 -36 28 -50 47 -76
105 -123 158 -247 281 -76 75 -157 146 -180 158 -23 12 -92 49 -155 82 -153
81 -190 90 -413 104 -286 17 -519 14 -586 -10z m-1236 -2425 c-6 -16 -39 -19
-48 -5 -7 12 25 31 41 24 7 -3 10 -11 7 -19z m-289 -234 c8 -16 11 -30 7 -30
-15 0 -51 32 -51 46 0 25 28 15 44 -16z m956 -209 c0 -6 -4 -13 -10 -16 -5 -3
-10 1 -10 9 0 9 5 16 10 16 6 0 10 -4 10 -9z m172 -128 c-6 -35 -30 -63 -53
-63 -32 0 -33 22 -3 46 16 12 34 27 39 33 17 17 22 12 17 -16z m-292 -71 c-27
-4 -75 41 -66 64 5 13 14 9 47 -23 36 -34 38 -38 19 -41z m500 62 c0 -8 -4
-12 -10 -9 -5 3 -10 10 -10 16 0 5 5 9 10 9 6 0 10 -7 10 -16z m-64 -79 c33
-14 69 -68 58 -87 -10 -15 -44 -8 -54 12 -6 11 -18 20 -28 20 -25 0 -46 38
-31 56 14 17 12 17 55 -1z m114 -169 c0 -3 -4 -8 -10 -11 -5 -3 -10 -1 -10 4
0 6 5 11 10 11 6 0 10 -2 10 -4z"/>
<path d="M9350 8344 c-573 -550 -567 -543 -757 -723 -84 -79 -153 -149 -153
-156 0 -23 145 -167 164 -164 10 2 289 263 621 579 l604 575 0 173 c1 94 0
172 -1 171 -2 0 -217 -205 -478 -455z"/>
<path d="M0 8621 l0 -159 39 -34 c49 -42 594 -530 601 -538 4 -5 422 -381 574
-517 33 -29 65 -53 72 -53 15 0 125 110 143 144 16 29 47 -2 -419 416 -168
151 -307 277 -310 280 -3 3 -153 138 -335 300 -181 162 -336 300 -343 307 -7
7 -15 13 -18 13 -2 0 -4 -72 -4 -159z"/>
<path d="M3825 7251 c4 -14 0 -23 -15 -31 -24 -13 -29 -55 -4 -46 9 3 20 6 25
6 5 0 9 20 9 45 0 25 -5 45 -11 45 -6 0 -8 -8 -4 -19z"/>
<path d="M5930 6516 c-52 -12 -105 -27 -117 -34 -12 -7 -73 -15 -135 -19 -94
-5 -119 -10 -150 -29 -20 -13 -39 -28 -43 -34 -3 -5 -16 -10 -27 -10 -36 0
-108 -40 -108 -60 0 -12 -10 -20 -35 -24 -28 -6 -39 -14 -49 -39 -19 -46 -36
-101 -36 -119 0 -8 -14 -61 -31 -117 -29 -94 -31 -109 -23 -173 l9 -70 53 -4
52 -4 0 30 c0 33 19 40 44 15 8 -8 32 -15 53 -15 21 0 57 -7 81 -15 24 -9 47
-13 52 -10 4 2 7 27 7 53 -1 36 5 57 23 82 l24 34 11 -76 c6 -41 16 -83 24
-92 8 -9 11 -19 8 -22 -3 -3 -44 -6 -90 -6 -99 -1 -111 -5 -102 -41 9 -34 88
-90 220 -155 114 -57 183 -69 280 -49 56 11 61 15 80 54 24 50 91 113 121 113
12 0 41 15 65 33 24 19 54 39 67 46 12 6 22 16 22 22 0 5 9 22 21 38 16 22 21
46 24 117 2 49 3 92 4 95 1 3 15 21 32 38 57 60 70 140 33 196 -8 11 -14 27
-14 35 0 9 -24 45 -53 81 -30 35 -60 78 -68 94 -19 40 -49 52 -149 57 -63 4
-110 -1 -180 -16z m-170 -453 c10 -17 10 -17 20 0 13 21 43 22 60 2 7 -8 21
-15 31 -15 11 0 19 -5 19 -11 0 -7 -29 -8 -87 -3 -90 7 -111 14 -99 33 11 17
44 13 56 -6z m-20 -123 c0 -5 -4 -10 -10 -10 -5 0 -10 5 -10 10 0 6 5 10 10
10 6 0 10 -4 10 -10z m190 -10 c0 -5 -7 -10 -15 -10 -8 0 -15 5 -15 10 0 6 7
10 15 10 8 0 15 -4 15 -10z m0 -69 c5 -11 10 -35 10 -54 0 -31 4 -35 31 -41
17 -3 42 -6 55 -6 35 0 39 -19 7 -31 -28 -12 -219 -20 -260 -12 -27 6 -30 21
-5 29 47 15 82 35 82 48 0 7 7 20 16 27 9 7 20 23 25 36 10 28 25 29 39 4z
m-251 -110 c9 -6 10 -10 2 -16 -16 -9 -44 2 -36 15 8 12 16 12 34 1z"/>
<path d="M3415 6190 c-9 -14 13 -50 30 -50 18 0 19 14 5 41 -12 21 -25 25 -35
9z"/>
<path d="M3455 6000 c-3 -5 -4 -10 -1 -10 2 0 11 -3 20 -6 11 -4 16 -1 16 10
0 18 -25 22 -35 6z"/>
<path d="M9313 5474 c-6 -3 -37 -30 -67 -60 -52 -50 -56 -57 -56 -100 0 -36 4
-47 19 -51 10 -2 24 -16 30 -29 9 -20 18 -24 55 -24 25 0 48 5 51 10 4 6 23
18 43 26 29 13 83 18 240 22 l202 5 0 103 0 104 -252 -1 c-139 0 -258 -3 -265
-5z"/>
<path d="M0 5360 l0 -100 294 0 294 0 6 31 c8 40 8 133 0 153 -5 14 -41 16
-300 16 l-294 0 0 -100z"/>
<path d="M4497 5252 c-26 -29 -45 -85 -37 -112 7 -27 29 -29 45 -3 6 9 20 27
33 41 25 28 37 65 27 81 -10 17 -50 13 -68 -7z"/>
<path d="M3450 5208 c0 -23 18 -41 33 -35 22 8 10 47 -14 47 -11 0 -19 -6 -19
-12z"/>
<path d="M3450 5130 c0 -11 7 -23 15 -26 12 -5 15 -28 15 -124 0 -95 3 -120
16 -131 11 -9 14 -23 11 -44 -3 -20 2 -48 14 -74 10 -24 19 -65 19 -93 0 -50
17 -94 44 -117 8 -7 18 -27 22 -44 3 -17 10 -38 14 -47 4 -8 16 -33 26 -54 22
-46 22 -97 -1 -541 -8 -146 -15 -205 -26 -205 -5 0 -9 -11 -9 -25 0 -18 -21
-45 -76 -98 -71 -68 -76 -75 -63 -95 11 -18 11 -29 -5 -76 -19 -54 -19 -54 3
-84 11 -17 21 -37 21 -45 0 -15 -29 -77 -41 -87 -4 -3 -9 -15 -13 -27 -8 -26
-24 -30 -32 -8 -4 10 -20 15 -45 15 -26 0 -42 5 -45 15 -9 23 -24 18 -24 -7 0
-13 18 -46 40 -75 21 -29 47 -67 56 -85 16 -31 47 -63 139 -143 25 -22 59 -52
75 -67 17 -16 36 -28 44 -28 8 0 23 -11 33 -24 23 -30 103 -91 132 -101 12 -4
26 -18 31 -31 12 -31 29 -38 62 -25 24 9 26 13 18 47 -7 30 -5 43 10 63 32 45
68 74 85 67 24 -9 31 -37 12 -51 -31 -22 -20 -37 23 -33 32 3 40 0 40 -13 0
-24 30 -33 48 -15 12 12 13 18 3 30 -9 11 -10 20 -2 33 7 14 2 32 -25 80 -35
63 -45 128 -23 150 8 8 8 13 0 17 -20 13 -11 26 13 20 21 -5 24 -1 30 30 l7
36 29 -15 c16 -8 31 -23 35 -34 4 -12 12 -17 24 -14 24 6 84 -31 101 -62 7
-14 18 -25 23 -25 5 0 28 -20 51 -44 23 -24 48 -45 55 -47 7 -3 14 -17 15 -33
4 -28 39 -65 63 -66 7 0 30 -9 51 -20 31 -16 61 -21 157 -23 107 -2 123 0 161
20 24 13 53 23 65 23 13 0 38 18 62 45 22 25 46 45 53 45 54 0 258 188 309
284 19 36 40 61 65 75 29 16 40 30 50 66 7 25 17 48 21 51 5 3 9 17 9 31 0 14
25 62 55 108 30 46 55 93 55 105 0 12 5 31 12 43 7 12 14 33 16 46 1 13 11 35
22 50 10 14 20 49 23 78 4 55 -7 68 -48 53 -29 -11 -45 7 -45 50 0 67 56 92
82 35 15 -34 40 -28 50 14 8 28 6 36 -11 48 -21 14 -28 47 -12 57 4 3 14 26
21 51 12 43 12 45 -18 79 -26 29 -32 47 -38 104 -6 65 -8 70 -38 86 -17 8 -47
29 -67 46 -36 31 -37 31 -100 21 -118 -19 -134 -23 -169 -38 -47 -22 -69 -20
-180 9 -95 26 -95 26 -150 8 -92 -31 -127 -34 -155 -16 -13 9 -35 16 -47 16
-13 0 -40 9 -61 20 -49 26 -154 28 -172 3 -11 -15 -16 -16 -37 -5 -13 7 -48
13 -78 12 -83 -1 -158 6 -172 17 -7 6 -31 13 -52 16 -37 6 -145 53 -156 69 -3
4 -15 9 -27 11 -30 4 -50 24 -63 61 -6 19 -21 38 -35 44 -14 7 -30 23 -35 37
-12 31 -35 42 -54 26 -18 -15 -42 16 -57 72 -8 30 -14 37 -34 37 -26 0 -65 31
-65 52 0 13 -77 88 -91 88 -5 0 -9 9 -9 20 0 11 -5 29 -12 39 -9 15 -9 28 1
59 19 57 -3 110 -27 66 -13 -24 -32 -8 -32 25 0 21 -10 36 -34 55 -42 31 -46
32 -46 6z m2098 -996 c29 -20 31 -83 2 -109 -12 -11 -19 -28 -18 -43 3 -26
-18 -44 -89 -77 -17 -8 -34 -19 -38 -25 -14 -22 -36 -7 -66 45 -35 62 -46 72
-62 56 -16 -16 -42 -14 -57 4 -11 13 -8 17 17 26 17 5 35 21 42 35 8 19 16 24
30 19 14 -4 23 0 31 14 12 24 79 60 97 54 7 -2 20 0 30 6 26 15 55 13 81 -5z
m-625 -426 c155 -1 302 2 327 6 35 6 62 2 125 -18 95 -31 103 -31 127 -9 17
16 20 16 35 0 16 -16 16 -17 0 -17 -9 0 -17 -7 -17 -15 0 -9 9 -15 25 -15 35
0 31 -15 -17 -66 -33 -33 -50 -44 -75 -44 -22 0 -33 -6 -38 -19 -3 -10 -18
-22 -33 -26 -15 -4 -34 -13 -42 -20 -9 -8 -31 -15 -50 -16 -19 -2 -48 -9 -65
-18 -35 -17 -65 -23 -286 -57 -25 -4 -39 -1 -48 10 -17 20 -40 20 -63 0 -28
-26 -50 -2 -42 46 l6 38 -48 6 c-27 3 -74 11 -104 17 -30 6 -73 14 -95 18 -29
4 -41 11 -43 26 -6 34 -19 39 -57 21 -39 -19 -61 -15 -112 18 -39 25 -42 54
-9 78 23 17 44 20 181 34 39 4 79 13 90 21 11 7 26 11 33 8 8 -3 141 -6 295
-7z m717 -17 c0 -6 -10 -17 -22 -25 -25 -18 -44 -7 -35 18 7 17 57 23 57 7z
m-2025 -561 c4 -11 4 -34 0 -51 -5 -20 -2 -38 9 -53 13 -20 13 -25 1 -29 -17
-7 -13 -36 7 -51 23 -17 40 -55 33 -76 -8 -24 -18 -25 -53 -6 -15 8 -34 17
-43 19 -10 3 -19 21 -23 49 -11 78 -17 113 -23 128 -11 28 -14 62 -5 56 4 -3
22 4 38 14 38 24 51 24 59 0z m455 -150 c0 -20 -5 -30 -15 -30 -18 0 -30 24
-21 45 10 28 36 17 36 -15z m-323 -144 c3 -2 0 -14 -7 -25 -6 -12 -8 -26 -5
-31 3 -5 -5 -14 -17 -21 -13 -7 -26 -17 -30 -23 -5 -8 -8 -7 -8 2 0 6 10 22
21 33 17 17 19 23 8 30 -23 14 -59 10 -59 -6 0 -8 -4 -15 -10 -15 -16 0 -12
30 5 36 8 4 15 12 15 20 0 10 11 12 41 9 23 -2 43 -6 46 -9z m191 -111 c-3 -3
-9 2 -12 12 -6 14 -5 15 5 6 7 -7 10 -15 7 -18z"/>
<path d="M4422 4916 c-7 -15 -12 -36 -12 -47 0 -33 29 -92 62 -126 26 -27 40
-33 72 -33 23 0 55 -9 74 -20 18 -11 52 -24 76 -30 87 -19 136 -47 152 -87 12
-28 13 -42 5 -60 -27 -60 -5 -47 93 54 42 43 114 76 190 87 23 3 51 16 67 32
30 29 126 77 139 69 10 -6 22 24 15 36 -3 5 -15 3 -25 -4 -16 -9 -24 -9 -40 1
-11 6 -25 12 -33 12 -7 0 -30 9 -51 21 -53 28 -136 41 -156 24 -51 -44 -147
-59 -186 -30 -10 8 -29 15 -40 15 -13 0 -24 8 -27 20 -3 14 -17 21 -46 26 -26
4 -46 14 -52 25 -14 27 -80 26 -104 -1 -10 -11 -27 -20 -38 -20 -33 0 -91 23
-107 44 -15 17 -16 17 -28 -8z"/>
<path d="M0 4220 l0 -100 294 0 294 0 6 31 c8 40 8 133 0 153 -5 14 -41 16
-300 16 l-294 0 0 -100z"/>
<path d="M9247 4243 c-54 -53 -57 -59 -57 -105 0 -37 4 -48 15 -48 9 0 24 -13
33 -30 14 -24 24 -30 51 -30 21 0 43 8 56 20 28 26 106 40 230 40 56 0 136 3
178 6 l77 7 0 98 0 99 -263 0 -263 0 -57 -57z"/>
<path d="M3181 3318 c-11 -29 -3 -56 20 -68 9 -6 19 -19 21 -30 2 -12 8 -19
13 -18 14 4 7 121 -8 130 -21 14 -37 9 -46 -14z"/>
<path d="M6290 3313 c0 -10 4 -25 10 -33 8 -12 10 -12 16 3 7 20 -1 47 -16 47
-5 0 -10 -8 -10 -17z"/>
<path d="M6257 3086 c-6 -16 2 -28 14 -20 12 7 11 34 0 34 -5 0 -11 -6 -14
-14z"/>
<path d="M6212 2968 c-14 -14 -16 -38 -3 -38 10 0 26 39 19 46 -2 2 -10 -2
-16 -8z"/>
<path d="M8519 2472 c-85 -3 -86 -3 -123 -41 -34 -34 -37 -41 -26 -61 7 -12 9
-36 6 -55 -6 -28 -2 -36 23 -57 17 -15 48 -28 74 -31 75 -10 107 -36 691 -557
182 -162 349 -310 371 -330 62 -57 248 -223 273 -244 l22 -19 0 160 0 160
-103 94 c-186 169 -543 487 -796 709 -85 74 -186 163 -225 198 -39 35 -78 66
-86 70 -8 4 -54 6 -101 4z"/>
<path d="M1225 2360 c-21 -22 -36 -42 -32 -46 9 -10 -24 -85 -53 -119 -50 -59
-337 -339 -615 -600 -99 -93 -211 -198 -250 -234 -38 -36 -116 -111 -173 -166
l-103 -100 3 -172 3 -172 412 387 c426 400 946 896 997 951 29 30 30 36 33
132 l3 101 -39 39 c-36 36 -41 38 -65 28 -20 -9 -32 -9 -51 -1 -14 7 -27 12
-28 12 -2 0 -20 -18 -42 -40z"/>
<path d="M7445 1670 c-9 -15 4 -30 26 -30 23 0 26 25 3 34 -21 8 -22 8 -29 -4z"/>
<path d="M7551 1460 c-18 -4 -48 -22 -65 -39 -27 -27 -29 -34 -18 -51 15 -25
15 -53 0 -68 -6 -6 -10 -13 -7 -15 2 -1 21 -18 43 -36 21 -18 44 -30 52 -27
24 9 77 -16 144 -67 81 -63 199 -166 548 -477 150 -135 304 -272 341 -305 38
-33 147 -131 244 -217 l175 -158 182 0 181 0 -60 52 c-86 76 -508 455 -561
504 -25 23 -73 66 -106 95 -34 30 -142 126 -240 214 -99 88 -285 253 -414 366
-130 114 -241 214 -249 223 -10 12 -30 16 -85 15 -39 -1 -86 -5 -105 -9z"/>
<path d="M2209 1303 c-17 -20 -28 -42 -25 -50 11 -27 -35 -95 -127 -191 -82
-84 -353 -342 -934 -889 l-183 -173 193 0 192 0 86 83 c47 45 168 161 269 257
102 96 230 218 285 270 93 89 322 309 426 410 l46 45 2 102 c2 100 1 102 -28
135 -27 31 -33 33 -100 34 -69 2 -72 1 -102 -33z"/>
<path d="M4166 565 c-9 -14 -23 -25 -31 -25 -24 0 -19 -75 6 -110 19 -25 23
-49 30 -187 4 -87 8 -177 9 -200 l0 -43 90 0 90 0 0 240 0 241 -53 54 c-45 46
-59 55 -89 55 -27 0 -40 -6 -52 -25z"/>
<path d="M5213 555 c-39 -41 -42 -73 -10 -124 20 -33 22 -51 27 -231 l5 -195
95 -3 95 -3 -4 243 -3 242 -53 53 c-66 66 -102 70 -152 18z"/>
</g>
</svg>
